# This file uses centimeters as units for non-parametric coordinates.

mtllib smallCone.mtl
g default
v 0.142212 0.617064 -0.046208
v 0.120976 0.617064 -0.087896
v 0.087896 0.617064 -0.120976
v 0.046208 0.617064 -0.142212
v 0.000000 0.617064 -0.149528
v -0.046208 0.617064 -0.142212
v -0.087896 0.617064 -0.120976
v -0.120976 0.617064 -0.087896
v -0.142212 0.617064 -0.046208
v -0.149528 0.617064 0.000000
v -0.142212 0.617064 0.046208
v -0.120976 0.617064 0.087896
v -0.087896 0.617064 0.120976
v -0.046208 0.617064 0.142212
v 0.000000 0.617064 0.149528
v 0.046208 0.617064 0.142212
v 0.087896 0.617064 0.120976
v 0.120976 0.617064 0.087896
v 0.142212 0.617064 0.046208
v 0.149528 0.617064 0.000000
v 0.000000 0.000164 0.000000
vt 0.737764 0.172746
vt 0.702254 0.103054
vt 0.646946 0.047746
vt 0.577254 0.012236
vt 0.500000 -0.000000
vt 0.422746 0.012236
vt 0.353054 0.047746
vt 0.297746 0.103054
vt 0.262236 0.172746
vt 0.250000 0.250000
vt 0.262236 0.327254
vt 0.297746 0.396946
vt 0.353054 0.452254
vt 0.422746 0.487764
vt 0.500000 0.500000
vt 0.577254 0.487764
vt 0.646946 0.452254
vt 0.702254 0.396946
vt 0.737764 0.327254
vt 0.750000 0.250000
vt 0.250000 0.500000
vt 0.500000 1.000000
vt 0.275000 0.500000
vt 0.300000 0.500000
vt 0.325000 0.500000
vt 0.350000 0.500000
vt 0.375000 0.500000
vt 0.400000 0.500000
vt 0.425000 0.500000
vt 0.450000 0.500000
vt 0.475000 0.500000
vt 0.500000 0.500000
vt 0.525000 0.500000
vt 0.550000 0.500000
vt 0.575000 0.500000
vt 0.600000 0.500000
vt 0.625000 0.500000
vt 0.650000 0.500000
vt 0.675000 0.500000
vt 0.700000 0.500000
vt 0.725000 0.500000
vt 0.750000 0.500000
vn 0.000000 1.000000 0.000000
vn 0.000000 1.000000 0.000000
vn 0.000000 1.000000 0.000000
vn 0.000000 1.000000 0.000000
vn 0.000000 1.000000 0.000000
vn 0.000000 1.000000 0.000000
vn 0.000000 1.000000 0.000000
vn 0.000000 1.000000 0.000000
vn 0.000000 1.000000 0.000000
vn 0.000000 1.000000 0.000000
vn 0.000000 1.000000 0.000000
vn 0.000000 1.000000 0.000000
vn 0.000000 1.000000 0.000000
vn 0.000000 1.000000 0.000000
vn 0.000000 1.000000 0.000000
vn 0.000000 1.000000 0.000000
vn 0.000000 1.000000 0.000000
vn 0.000000 1.000000 0.000000
vn 0.000000 1.000000 0.000000
vn 0.000000 1.000000 0.000000
vn 0.924291 -0.235572 -0.300320
vn -0.000001 -1.000000 -0.000002
vn 0.786249 -0.235572 -0.571243
vn 0.786249 -0.235572 -0.571243
vn -0.000001 -1.000000 -0.000002
vn 0.571243 -0.235571 -0.786249
vn 0.571243 -0.235571 -0.786249
vn -0.000001 -1.000000 -0.000002
vn 0.300320 -0.235572 -0.924291
vn 0.300320 -0.235572 -0.924291
vn -0.000001 -1.000000 -0.000002
vn 0.000000 -0.235571 -0.971857
vn 0.000000 -0.235571 -0.971857
vn -0.000001 -1.000000 -0.000002
vn -0.300321 -0.235571 -0.924291
vn -0.300321 -0.235571 -0.924291
vn -0.000001 -1.000000 -0.000002
vn -0.571243 -0.235572 -0.786249
vn -0.571243 -0.235572 -0.786249
vn -0.000001 -1.000000 -0.000002
vn -0.786249 -0.235571 -0.571243
vn -0.786249 -0.235571 -0.571243
vn -0.000001 -1.000000 -0.000002
vn -0.924291 -0.235571 -0.300321
vn -0.924291 -0.235571 -0.300321
vn -0.000001 -1.000000 -0.000002
vn -0.971857 -0.235571 0.000000
vn -0.971857 -0.235571 0.000000
vn -0.000001 -1.000000 -0.000002
vn -0.924291 -0.235571 0.300321
vn -0.924291 -0.235571 0.300321
vn -0.000001 -1.000000 -0.000002
vn -0.786249 -0.235572 0.571243
vn -0.786249 -0.235572 0.571243
vn -0.000001 -1.000000 -0.000002
vn -0.571243 -0.235571 0.786249
vn -0.571243 -0.235571 0.786249
vn -0.000001 -1.000000 -0.000002
vn -0.300321 -0.235571 0.924291
vn -0.300321 -0.235571 0.924291
vn -0.000001 -1.000000 -0.000002
vn 0.000000 -0.235571 0.971857
vn 0.000000 -0.235571 0.971857
vn -0.000001 -1.000000 -0.000002
vn 0.300321 -0.235571 0.924291
vn 0.300321 -0.235571 0.924291
vn -0.000001 -1.000000 -0.000002
vn 0.571243 -0.235571 0.786249
vn 0.571243 -0.235571 0.786249
vn -0.000001 -1.000000 -0.000002
vn 0.786249 -0.235571 0.571243
vn 0.786249 -0.235571 0.571243
vn -0.000001 -1.000000 -0.000002
vn 0.924291 -0.235571 0.300321
vn 0.924291 -0.235571 0.300321
vn -0.000001 -1.000000 -0.000002
vn 0.971857 -0.235571 0.000001
vn 0.971857 -0.235571 0.000001
vn -0.000001 -1.000000 -0.000002
vn 0.924291 -0.235572 -0.300320
s off
g smallCone:pCone1
usemtl smallCone:initialShadingGroup
f 1/1/1 2/2/2 3/3/3 4/4/4 5/5/5 6/6/6 7/7/7 8/8/8 9/9/9 10/10/10 11/11/11 12/12/12 13/13/13 14/14/14 15/15/15 16/16/16 17/17/17 18/18/18 19/19/19 20/20/20
f 1/21/21 21/22/22 2/23/23
f 2/23/24 21/22/25 3/24/26
f 3/24/27 21/22/28 4/25/29
f 4/25/30 21/22/31 5/26/32
f 5/26/33 21/22/34 6/27/35
f 6/27/36 21/22/37 7/28/38
f 7/28/39 21/22/40 8/29/41
f 8/29/42 21/22/43 9/30/44
f 9/30/45 21/22/46 10/31/47
f 10/31/48 21/22/49 11/32/50
f 11/32/51 21/22/52 12/33/53
f 12/33/54 21/22/55 13/34/56
f 13/34/57 21/22/58 14/35/59
f 14/35/60 21/22/61 15/36/62
f 15/36/63 21/22/64 16/37/65
f 16/37/66 21/22/67 17/38/68
f 17/38/69 21/22/70 18/39/71
f 18/39/72 21/22/73 19/40/74
f 19/40/75 21/22/76 20/41/77
f 20/41/78 21/22/79 1/42/80
